# xmcd CD database file
#
# Track frame offsets:
#	150
#	11239
#	24346
#	37982
#	46907
#	59568
#	71316
#	82566
#	96402
#	107497
#	118028
#	129793
#	142397
#	156216
#	166171
#	176418
#	189614
#	201750
#	212201
#	223020
#	232297
#	243241
#	253984
#	263951
#	275838
#
# Disc length: 3829 seconds
#
# Revision: 2
# Processed by: cddbd v1.5.1PL0 Copyright (c) Steve Scherf et al.
# Submitted via: CDex 1.51
#
DISCID=700ef319
DTITLE=Various Artist - All Time Top 100 #1 Country Classics Disc 2
DYEAR=1900
DGENRE=Country
TTITLE0=Marty Robbins - Singing The Blues
TTITLE1=Red Foley - Smoke On The Water
TTITLE2=Ray Price - City Lights
TTITLE3=Faron Young - Alone With You
TTITLE4=Red Foley - Chattanoogie Shoe Shine Boy
TTITLE5=Liga - Kaw-Liga
TTITLE6=Webb Pierce - I Don't Care
TTITLE7=Lefty Frizzell - Always Late With Your Kisses
TTITLE8=Webb Pierce - There Stands The Glass
TTITLE9=Cowboy Copas - Alabam
TTITLE10=Eddy Arnold - Don't Rob Another Man's Castle
TTITLE11=Jimmy Wakely - One Has My Name
TTITLE12=Lefty Frizzell - I Want To Be With You Always
TTITLE13=Eddy Arnold - I Wanna Play House With You
TTITLE14=Eddy Arnold - There's Been A Change In Me
TTITLE15=Carl Butler and Pearl - Don't Let Me Cross Over
TTITLE16=Timed Me One Time Too Often - You Two-Timed Me One Time Too Often
TTITLE17=Ferlin Husky - THE WINGS OF A DOVE
TTITLE18=Webb Pierce - More And More
TTITLE19=Elvis Presley - Don't Be Cruel
TTITLE20=Hank Williams - Why Don't You Love Me
TTITLE21=Ferlin Husky - Gone
TTITLE22=Johnny Cash - Ballad Of A Teenage Queen
TTITLE23=Tennessee Ernie Ford - Sixteen Tons
TTITLE24=Johnny Horton - The Battle Of New Orleans
EXTD=
EXTT0=
EXTT1=
EXTT2=
EXTT3=
EXTT4=
EXTT5=
EXTT6=
EXTT7=
EXTT8=
EXTT9=
EXTT10=
EXTT11=
EXTT12=
EXTT13=
EXTT14=
EXTT15=
EXTT16=
EXTT17=
EXTT18=
EXTT19=
EXTT20=
EXTT21=
EXTT22=
EXTT23=
EXTT24=
PLAYORDER=
